<svg width="1920" height="1080" xmlns="http://www.w3.org/2000/svg" fill-rule="evenodd" clip-rule="evenodd" stroke-linecap="round" stroke-linejoin="round" stroke-miterlimit="1.5"><path fill="url(#_Linear1)" stroke="#f6f7f8" stroke-width="1.03" d="M-.314-2.896h1959.14v1114.11H-.314z" transform="matrix(.98002 0 0 .96939 .307 2.807)"/><ellipse cx="175.686" cy="1149.88" rx="742.902" ry="705.255" fill="none" stroke="url(#_Linear2)" stroke-width="735.75" transform="matrix(.56561 .06314 -.07226 .64733 171.194 367.492)"/><path d="M1472.15 440.4c-489.852-3.568-579.876-.223-688.989 35.071-59.928 20.613-103.379 47.393-142.587 86.556-102.794 97.052-165.628 263.809-248.24 517.843 367.096 59.32 813.026-.23 813.026-.23s55.82-99.396 61.11-159.811c-82.47 22.19-280.532 29.785-348.698.657 92.158-24.622 467.868-97.269 554.378-480.086z" fill="url(#_Linear3)"/><defs><linearGradient id="_Linear1" x1="0" y1="0" x2="1" y2="0" gradientUnits="userSpaceOnUse" gradientTransform="matrix(320.13 -601.747 334.81 182.049 776.988 904.611)"><stop offset="0" stop-color="#f1f2f4"/><stop offset=".56" stop-color="#e5f4fa"/><stop offset="1" stop-color="#e0f5fd"/></linearGradient><linearGradient id="_Linear2" x1="0" y1="0" x2="1" y2="0" gradientUnits="userSpaceOnUse" gradientTransform="matrix(130.894 -624.667 776.753 124.26 112.4 890.051)"><stop offset="0" stop-color="#e7eff4"/><stop offset="1" stop-color="#def1f9"/></linearGradient><linearGradient id="_Linear3" x1="0" y1="0" x2="1" y2="0" gradientUnits="userSpaceOnUse" gradientTransform="matrix(87.0391 -635.177 392.283 53.7549 800.326 1112.86)"><stop offset="0" stop-color="#e3ecf3"/><stop offset="1" stop-color="#d6effb"/></linearGradient></defs></svg>